<svg xmlns="http://www.w3.org/2000/svg" width="14" height="17" viewBox="0 0 14 17">
    <g fill="none" fill-rule="evenodd">
        <path d="M0 1.619h13.762v13.762H0z"/>
        <path fill="#919191" d="M10.907 10.295l1.997 2.38a.75.75 0 0 1-.092 1.057l-.85.713a.75.75 0 0 1-1.057-.092l-2.01-2.397a5.2 5.2 0 0 1-1.301.41c-2.88.508-5.633-1.463-6.151-4.402-.518-2.939 1.395-5.733 4.274-6.24 2.88-.508 5.633 1.463 6.151 4.402.27 1.53-.12 3.02-.96 4.17zm-3.726-.27c1.612-.284 2.684-1.85 2.394-3.495-.29-1.646-1.833-2.75-3.445-2.465-1.612.284-2.684 1.849-2.394 3.495.29 1.645 1.833 2.75 3.445 2.465z"/>
    </g>
</svg>
